<svg width="24" height="24" viewBox="0 0 24 24" fill="none" xmlns="http://www.w3.org/2000/svg">
<rect width="24" height="24" fill="white"/>
<circle cx="12" cy="12" r="10" fill="#00AD26"/>
<path d="M9.97159 8.27273V17H8.91477V9.38068H8.86364L6.73295 10.7955V9.72159L8.91477 8.27273H9.97159ZM12.4815 17V16.233L15.3622 13.0795C15.7003 12.7102 15.9787 12.3892 16.1974 12.1165C16.4162 11.8409 16.5781 11.5824 16.6832 11.3409C16.7912 11.0966 16.8452 10.8409 16.8452 10.5739C16.8452 10.267 16.7713 10.0014 16.6236 9.77699C16.4787 9.55256 16.2798 9.37926 16.027 9.2571C15.7741 9.13494 15.4901 9.07386 15.1747 9.07386C14.8395 9.07386 14.5469 9.14347 14.2969 9.28267C14.0497 9.41903 13.858 9.6108 13.7216 9.85795C13.5881 10.1051 13.5213 10.3949 13.5213 10.7273H12.5156C12.5156 10.2159 12.6335 9.76705 12.8693 9.38068C13.1051 8.99432 13.4261 8.69318 13.8324 8.47727C14.2415 8.26136 14.7003 8.15341 15.2088 8.15341C15.7202 8.15341 16.1733 8.26136 16.5682 8.47727C16.9631 8.69318 17.2727 8.98437 17.4972 9.35085C17.7216 9.71733 17.8338 10.125 17.8338 10.5739C17.8338 10.8949 17.7756 11.2088 17.6591 11.5156C17.5455 11.8196 17.3466 12.1591 17.0625 12.5341C16.7812 12.9062 16.3906 13.3608 15.8906 13.8977L13.9304 15.9943V16.0625H17.9872V17H12.4815Z" fill="white"/>
</svg>
