<svg width="24" height="24" viewBox="0 0 24 24" fill="none" xmlns="http://www.w3.org/2000/svg">
<rect width="24" height="24" fill="white"/>
<circle cx="12" cy="12" r="10" fill="#FF7A00"/>
<path d="M9.97159 8.27273V17H8.91477V9.38068H8.86364L6.73295 10.7955V9.72159L8.91477 8.27273H9.97159ZM15.2088 17.1193C14.7088 17.1193 14.2585 17.0199 13.858 16.821C13.4574 16.6222 13.1364 16.3494 12.8949 16.0028C12.6534 15.6562 12.5213 15.2614 12.4986 14.8182H13.5213C13.5611 15.2131 13.7401 15.5398 14.0582 15.7983C14.3793 16.054 14.7628 16.1818 15.2088 16.1818C15.5668 16.1818 15.8849 16.098 16.1634 15.9304C16.4446 15.7628 16.6648 15.5327 16.8239 15.2401C16.9858 14.9446 17.0668 14.6108 17.0668 14.2386C17.0668 13.858 16.983 13.5185 16.8153 13.2202C16.6506 12.919 16.4233 12.6818 16.1335 12.5085C15.8438 12.3352 15.5128 12.2472 15.1406 12.2443C14.8736 12.2415 14.5994 12.2827 14.3182 12.3679C14.0369 12.4503 13.8054 12.5568 13.6236 12.6875L12.6349 12.5682L13.1634 8.27273H17.6974V9.21023H14.0497L13.7429 11.7841H13.794C13.973 11.642 14.1974 11.5241 14.4673 11.4304C14.7372 11.3366 15.0185 11.2898 15.3111 11.2898C15.8452 11.2898 16.321 11.4176 16.7386 11.6733C17.1591 11.9261 17.4886 12.2727 17.7273 12.7131C17.9688 13.1534 18.0895 13.6562 18.0895 14.2216C18.0895 14.7784 17.9645 15.2756 17.7145 15.7131C17.4673 16.1477 17.1264 16.4915 16.6918 16.7443C16.2571 16.9943 15.7628 17.1193 15.2088 17.1193Z" fill="white"/>
</svg>
