<svg width="24" height="24" viewBox="0 0 24 24" fill="none" xmlns="http://www.w3.org/2000/svg">
<rect width="24" height="24" fill="white"/>
<circle cx="12" cy="12" r="10" fill="#B60000"/>
<path d="M8.97159 8.27273V17H7.91477V9.38068H7.86364L5.73295 10.7955V9.72159L7.91477 8.27273H8.97159ZM14.2599 8.15341C14.6179 8.15625 14.9759 8.22443 15.3338 8.35795C15.6918 8.49148 16.0185 8.71307 16.3139 9.02273C16.6094 9.32955 16.8466 9.74858 17.0256 10.2798C17.2045 10.8111 17.294 11.4773 17.294 12.2784C17.294 13.054 17.2202 13.7429 17.0724 14.3452C16.9276 14.9446 16.7173 15.4503 16.4418 15.8622C16.169 16.2741 15.8366 16.5866 15.4446 16.7997C15.0554 17.0128 14.6151 17.1193 14.1236 17.1193C13.6349 17.1193 13.1989 17.0227 12.8153 16.8295C12.4347 16.6335 12.1222 16.3622 11.8778 16.0156C11.6364 15.6662 11.4815 15.2614 11.4134 14.8011H12.4531C12.5469 15.2017 12.733 15.5327 13.0114 15.794C13.2926 16.0526 13.6634 16.1818 14.1236 16.1818C14.7969 16.1818 15.3281 15.8878 15.7173 15.2997C16.1094 14.7116 16.3054 13.8807 16.3054 12.8068H16.2372C16.0781 13.0455 15.8892 13.2514 15.6705 13.4247C15.4517 13.598 15.2088 13.7315 14.9418 13.8253C14.6747 13.919 14.3906 13.9659 14.0895 13.9659C13.5895 13.9659 13.1307 13.8423 12.7131 13.5952C12.2983 13.3452 11.9659 13.0028 11.7159 12.5682C11.4688 12.1307 11.3452 11.6307 11.3452 11.0682C11.3452 10.5341 11.4645 10.0455 11.7031 9.60227C11.9446 9.15625 12.2827 8.80114 12.7173 8.53693C13.1548 8.27273 13.669 8.14489 14.2599 8.15341ZM14.2599 9.09091C13.902 9.09091 13.5795 9.1804 13.2926 9.35938C13.0085 9.53551 12.7827 9.77415 12.6151 10.0753C12.4503 10.3736 12.3679 10.7045 12.3679 11.0682C12.3679 11.4318 12.4474 11.7628 12.6065 12.0611C12.7685 12.3565 12.9886 12.5923 13.267 12.7685C13.5483 12.9418 13.8679 13.0284 14.2259 13.0284C14.4957 13.0284 14.7472 12.9759 14.9801 12.8707C15.2131 12.7628 15.4162 12.6165 15.5895 12.4318C15.7656 12.2443 15.9034 12.0327 16.0028 11.7969C16.1023 11.5582 16.152 11.3097 16.152 11.0511C16.152 10.7102 16.0696 10.3906 15.9048 10.0923C15.7429 9.79403 15.5185 9.55256 15.2315 9.3679C14.9474 9.18324 14.6236 9.09091 14.2599 9.09091Z" fill="white"/>
</svg>
